<COLLADA xmlns="http://www.collada.org/2005/11/COLLADASchema" version="1.4.1">
  <asset>
    <created>2026-05-27T18:11:58.226882</created>
    <modified>2026-05-27T18:11:58.226885</modified>
    <up_axis>Y_UP</up_axis>
  </asset>
  <library_effects>
    <effect id="44c6e62c13224e6d96b3007529f4627c" name="44c6e62c13224e6d96b3007529f4627c">
      <profile_COMMON>
        <technique sid="common">
          <phong>
            <emission>
              <color>0.0 0.0 0.0 1.0</color>
            </emission>
            <ambient>
              <color>0.0 0.0 0.0 1.0</color>
            </ambient>
            <diffuse>
              <color>0.0 0.0 0.0 1.0</color>
            </diffuse>
            <specular>
              <color>0.0 0.0 0.0 1.0</color>
            </specular>
            <shininess>
              <float>0.0</float>
            </shininess>
            <reflective>
              <color>0.0 0.0 0.0 1.0</color>
            </reflective>
            <reflectivity>
              <float>0.0</float>
            </reflectivity>
            <transparent>
              <color>0.0 0.0 0.0 1.0</color>
            </transparent>
            <transparency>
              <float>1.0</float>
            </transparency>
          </phong>
        </technique>
        <extra>
          <technique profile="GOOGLEEARTH">
            <double_sided>0</double_sided>
          </technique>
        </extra>
      </profile_COMMON>
    </effect>
  </library_effects>
  <library_geometries>
    <geometry id="692b95d90afa425b8dbcaf9b0e4faf22" name="24216ea681574ebd8947c2160bf2ca51">
      <mesh>
        <source id="verts-array">
          <float_array count="858" id="verts-array-array">361.5343 136.1178 2.332157 361.5347 123.8365 2.332157 352.2778 123.8362 2.332157 352.2774 136.1175 2.332157 361.5343 136.1178 5.332157 361.5347 123.8365 5.332157 352.2778 123.8362 5.332157 352.2774 136.1175 5.332157 273.8515 102.8533 1.455294 286.4513 102.5978 1.455294 286.1944 90.57229 1.455294 273.8518 90.57197 1.455294 273.8515 102.8533 4.761501 286.4513 102.5978 4.761501 286.1944 90.57229 4.761501 273.8518 90.57197 4.761501 290.3078 123.5785 1.822353 299.8218 123.067 1.822353 299.3079 110.5298 1.822353 289.7938 110.7854 1.822353 290.3078 123.5785 4.822353 299.8218 123.067 4.822353 299.3079 110.5298 4.822353 289.7938 110.7854 4.822353 290.8212 155.3053 1.924314 303.4209 155.0497 1.924314 303.164 145.5829 1.924314 290.5643 146.0942 1.924314 290.8212 155.3053 4.924314 303.4209 155.0497 4.924314 303.164 145.5829 4.924314 290.5643 146.0942 4.924314 286.4527 48.61109 1.190196 298.7955 42.72662 1.190196 291.3389 27.63062 1.190196 278.9961 33.25924 1.190196 286.4527 48.61109 4.429549 298.7955 42.72662 4.429549 291.3389 27.63062 4.429549 278.9961 33.25924 4.429549 -293.9158 -173.7319 -0.2780392 -293.9163 -192.4097 -0.2780392 -307.8021 -192.4093 -0.2780392 -308.0587 -173.7315 -0.2780392 -293.9158 -173.7319 2.721961 -293.9163 -192.4097 2.721961 -307.8021 -192.4093 2.721961 -308.0587 -173.7315 2.721961 -36.51459 -207.5095 -0.6654903 -12.85725 -207.7654 -0.6654903 -12.85726 -215.9529 -0.6654903 -36.77176 -215.9529 -0.6654903 -36.51459 -207.5095 2.33451 -12.85725 -207.7654 2.33451 -12.85726 -215.9529 2.33451 -36.77176 -215.9529 2.33451 86.65601 21.74223 0.1298039 110.3129 21.48659 0.1298039 110.0558 13.29903 0.1298039 86.1418 13.29882 0.1298039 86.65601 21.74223 3.129804 110.3129 21.48659 3.129804 110.0558 13.29903 3.129804 86.1418 13.29882 3.129804 20.57104 85.70715 0.3133333 20.57107 67.28516 0.3133333 4.88563 67.28514 0.3133333 4.885622 85.70713 0.3133333 20.57104 85.70715 4.03 20.57107 67.28516 4.03 4.88563 67.28514 4.03 4.885622 85.70713 4.03 57.08484 46.30469 0.1298039 57.08492 30.69717 0.1298039 38.57089 30.69709 0.1298039 38.57084 46.30461 0.1298039 57.08484 46.30469 3.129804 57.08492 30.69717 3.129804 38.57089 30.69709 3.129804 38.57084 46.30461 3.129804 -320.4015 -168.6139 -0.2780392 -320.6598 -206.7372 -0.2780392 -327.3455 -206.737 -0.2780392 -327.0872 -168.6137 -0.2780392 -320.4015 -168.6139 2.721961 -320.6598 -206.7372 2.721961 -327.3455 -206.737 2.721961 -327.0872 -168.6137 2.721961 42.42789 54.74803 0.1298039 62.74185 54.49227 0.1298039 62.74189 47.0723 0.1298039 42.42792 47.32807 0.1298039 42.42789 54.74803 3.129804 62.74185 54.49227 3.129804 62.74189 47.0723 3.129804 42.42792 47.32807 3.129804 169.201 -179.6194 -0.9509804 173.3157 -204.4378 -0.9509804 163.5442 -206.229 -0.9509804 159.1724 -181.4105 -0.9509804 169.201 -179.6194 1.998342 173.3157 -204.4378 1.998342 163.5442 -206.229 1.998342 159.1724 -181.4105 1.998342 80.74244 -63.71538 -0.2780392 112.8851 -63.97095 -0.2780392 112.6281 -71.64678 -0.2780392 80.7425 -71.3912 -0.2780392 80.74244 -63.71538 2.721961 112.8851 -63.97095 2.721961 112.6281 -71.64678 2.721961 80.7425 -71.3912 2.721961 57.08494 27.8827 -0.05372572 57.08502 12.27518 -0.05372572 38.57096 12.2751 -0.05372572 38.5709 27.88262 -0.05372572 57.08494 27.8827 2.946274 57.08502 12.27518 2.946274 38.57096 12.2751 2.946274 38.5709 27.88262 2.946274 39.08497 85.7072 0.3337255 39.08504 67.28521 0.3337255 23.3996 67.28516 0.3337255 23.39956 85.70716 0.3337255 39.08497 85.7072 3.333725 39.08504 67.28521 3.333725 23.3996 67.28516 3.333725 23.39956 85.70716 3.333725 57.08451 109.2465 0.4356863 57.08455 101.3148 0.4356863 40.11347 101.3147 0.4356863 40.11344 109.2464 0.4356863 57.08451 109.2465 3.435686 57.08455 101.3148 3.435686 40.11347 101.3147 3.435686 40.11344 109.2464 3.435686 26.74262 -23.03375 -0.2780392 26.74266 -41.19988 -0.2780392 11.57135 -41.19991 -0.2780392 11.57133 -23.03378 -0.2780392 26.74262 -23.03375 2.721961 26.74266 -41.19988 2.721961 11.57135 -41.19991 2.721961 11.57133 -23.03378 2.721961 44.9996 -23.03369 -0.2780392 44.99968 -41.19982 -0.2780392 29.82836 -41.19987 -0.2780392 29.82831 -23.03375 -0.2780392 44.9996 -23.03369 2.721961 44.99968 -41.19982 2.721961 29.82836 -41.19987 2.721961 29.82831 -23.03375 2.721961 359.9863 291.6813 2.536078 359.9874 258.1635 2.536078 329.3885 258.1625 2.536078 329.3875 291.6803 2.536078 359.9863 291.6813 5.536078 359.9874 258.1635 5.536078 329.3885 258.1625 5.536078 329.3875 291.6803 5.536078 304.9598 291.6796 2.515686 304.9608 258.1618 2.515686 274.619 258.161 2.515686 274.6181 291.6788 2.515686 304.9598 291.6796 5.515686 304.9608 258.1618 5.515686 274.619 258.161 5.515686 274.6181 291.6788 5.515686 64.54156 98.24451 0.3337255 64.54174 67.28533 0.3337255 57.08473 67.28529 0.3337255 41.65642 67.54108 0.3337255 41.6563 98.2444 0.3337255 64.54156 98.24451 3.333725 64.54174 67.28533 3.333725 57.08473 67.28529 3.333725 41.65642 67.54108 3.333725 41.6563 98.2444 3.333725 239.393 196.4976 1.536863 239.393 196.2418 1.536863 239.6506 175.0053 1.536863 221.9082 175.0049 1.536863 221.9078 196.4972 1.536863 239.393 196.4976 4.563498 239.393 196.2418 4.563498 239.6506 175.0053 4.563498 221.9082 175.0049 4.563498 221.9078 196.4972 4.563498 63.76966 180.3759 0.537647 63.25568 129.9713 0.537647 25.19942 130.227 0.537647 25.1993 180.1199 0.537647 54.25564 180.12 0.537647 63.76966 180.3759 5.737647 63.25568 129.9713 5.737647 25.19942 130.227 5.737647 25.1993 180.1199 5.737647 54.25564 180.12 5.737647 110.5668 335.1722 0.9250979 110.3099 313.9357 0.9250979 106.1957 313.9357 0.9250979 106.1957 315.9826 0.9250979 101.5673 315.9825 0.9250979 101.8243 328.5197 0.9250979 105.9385 328.5198 0.9250979 106.1955 335.1722 0.9250979 110.5668 335.1722 3.925098 110.3099 313.9357 3.925098 106.1957 313.9357 3.925098 106.1957 315.9826 3.925098 101.5673 315.9825 3.925098 101.8243 328.5197 3.925098 105.9385 328.5198 3.925098 106.1955 335.1722 3.925098 63.25475 288.3493 0.7619607 64.02642 243.0619 0.7619607 26.48483 242.2941 0.7619607 25.9705 264.8099 0.7619607 14.14235 264.554 0.7619607 13.88519 287.5815 0.7619607 63.25475 288.3493 9.361961 64.02642 243.0619 9.361961 26.48483 242.2941 9.361961 25.9705 264.8099 9.361961 14.14235 264.554 9.361961 13.88519 287.5815 9.361961 -365.9146 -127.6747 -0.07411766 -343.8003 -127.9313 -0.07411766 -344.058 -145.8415 -0.07411766 -346.1152 -145.8415 -0.07411766 -346.6301 -167.0779 -0.07411766 -367.2016 -166.8214 -0.07411766 -366.4294 -142.2588 -0.07411766 -367.4579 -142.2587 -0.07411766 -367.2004 -129.4657 -0.07411766 -366.1718 -129.4657 -0.07411766 -365.9146 -127.6747 2.925882 -343.8003 -127.9313 2.925882 -344.058 -145.8415 2.925882 -346.1152 -145.8415 2.925882 -346.6301 -167.0779 2.925882 -367.2016 -166.8214 2.925882 -366.4294 -142.2588 2.925882 -367.4579 -142.2587 2.925882 -367.2004 -129.4657 2.925882 -366.1718 -129.4657 2.925882 359.9852 323.1522 2.678823 359.9856 313.6853 2.678823 357.9285 313.6853 2.678823 357.9286 311.3825 2.678823 359.9856 311.3826 2.678823 359.986 301.1481 2.678823 322.9588 301.147 2.678823 322.9588 304.2173 2.678823 317.0447 304.2171 2.678823 317.0448 301.1468 2.678823 292.36 301.1461 2.678823 292.3598 311.3805 2.678823 294.1597 311.3806 2.678823 294.1596 313.6833 2.678823 292.3597 313.6833 2.678823 292.3594 323.1501 2.678823 317.3013 323.1509 2.678823 317.3014 320.3364 2.678823 322.9583 320.3365 2.678823 322.9582 323.151 2.678823 359.9852 323.1522 5.678823 359.9856 313.6853 5.678823 357.9285 313.6853 5.678823 357.9286 311.3825 5.678823 359.9856 311.3826 5.678823 359.986 301.1481 5.678823 322.9588 301.147 5.678823 322.9588 304.2173 5.678823 317.0447 304.2171 5.678823 317.0448 301.1468 5.678823 292.36 301.1461 5.678823 292.3598 311.3805 5.678823 294.1597 311.3806 5.678823 294.1596 313.6833 5.678823 292.3597 313.6833 5.678823 292.3594 323.1501 5.678823 317.3013 323.1509 5.678823 317.3014 320.3364 5.678823 322.9583 320.3365 5.678823 322.9582 323.151 5.678823</float_array>
          <technique_common>
            <accessor count="286" source="#verts-array-array" stride="3">
              <param type="float" name="X" />
              <param type="float" name="Y" />
              <param type="float" name="Z" />
            </accessor>
          </technique_common>
        </source>
        <source id="normals-array">
          <float_array count="858" id="normals-array-array">0.577331 0.5773695 -0.5773503 0.5773695 -0.577331 -0.5773502 -0.5773313 -0.5773693 -0.5773502 -0.5773692 0.5773313 -0.5773503 0.577331 0.5773695 0.5773503 0.5773695 -0.577331 0.5773502 -0.5773313 -0.5773693 0.5773502 -0.5773692 0.5773313 0.5773503 -0.5719983 0.5837017 -0.5762901 0.589271 0.5652359 -0.5772938 0.5706 -0.5829008 -0.5784828 -0.5773355 -0.5773651 -0.5773502 -0.5719983 0.5837017 0.5762901 0.589271 0.5652359 0.5772938 0.5706 -0.5829008 0.5784828 -0.5773355 -0.5773651 0.5773502 -0.5499676 0.6041697 -0.5766408 0.6036716 0.5490628 -0.578023 0.5570814 -0.5962092 -0.5780959 -0.5967258 -0.5580214 -0.5766545 -0.5499676 0.6041697 0.5766408 0.6036716 0.5490628 0.578023 0.5570814 -0.5962092 0.5780959 -0.5967258 -0.5580214 0.5766545 -0.5630863 0.5908784 -0.5777513 0.5910549 0.5636805 -0.5769909 0.5578219 -0.5969196 -0.576647 -0.5964205 -0.5569339 -0.5780201 -0.5630863 0.5908784 0.5777513 0.5910549 0.5636805 0.5769909 0.5578219 -0.5969196 0.576647 -0.5964205 -0.5569339 0.5780201 -0.2698003 0.7703449 -0.5777339 0.7719788 0.267499 -0.576622 0.2734975 -0.7680912 -0.5789948 -0.7691175 -0.276743 -0.576083 -0.2698003 0.7703449 0.5777339 0.7719788 0.267499 0.576622 0.2734975 -0.7680912 0.5789948 -0.7691175 -0.276743 0.576083 0.5773662 0.5773343 -0.5773503 0.5773344 -0.5773662 -0.5773502 -0.5730175 -0.5809279 -0.5780776 -0.5816567 0.5737364 -0.5766298 0.5773662 0.5773343 0.5773503 0.5773344 -0.5773662 0.5773502 -0.5730175 -0.5809279 0.5780776 -0.5816567 0.5737364 0.5766298 -0.5648061 0.5886081 -0.5783896 0.5801776 0.5739347 -0.5779212 0.5773493 -0.5773513 -0.5773502 -0.586876 -0.5692715 -0.5757661 -0.5648061 0.5886081 0.5783896 0.5801776 0.5739347 0.5779212 0.5773493 -0.5773513 0.5773502 -0.586876 -0.5692715 0.5757661 -0.5550124 0.596264 -0.5800263 0.5899482 0.5655681 -0.5762758 0.5673989 -0.5854872 -0.5790192 -0.5962431 -0.5610412 -0.5742185 -0.5550124 0.596264 0.5800263 0.5899482 0.5655681 0.5762758 0.5673989 -0.5854872 0.5790192 -0.5962431 -0.5610412 0.5742185 0.5773494 0.5773511 -0.5773503 0.5773512 -0.5773494 -0.5773502 -0.5773498 -0.5773508 -0.5773502 -0.5773507 0.5773498 -0.5773503 0.5773494 0.5773511 0.5773503 0.5773512 -0.5773494 0.5773502 -0.5773498 -0.5773508 0.5773502 -0.5773507 0.5773498 0.5773503 0.5773474 0.5773531 -0.5773503 0.5773531 -0.5773475 -0.5773502 -0.577348 -0.5773526 -0.5773502 -0.5773526 0.5773479 -0.5773503 0.5773474 0.5773531 0.5773503 0.5773531 -0.5773475 0.5773502 -0.577348 -0.5773526 0.5773502 -0.5773526 0.5773479 0.5773503 0.5794887 0.5755588 -0.5769964 0.5752053 -0.5791329 -0.5777058 -0.5794889 -0.5755586 -0.5769964 -0.5752052 0.579133 -0.5777058 0.5794887 0.5755588 0.5769964 0.5752053 -0.5791329 0.5777058 -0.5794889 -0.5755586 0.5769964 -0.5752052 0.579133 0.5777058 -0.574033 0.5813035 -0.5766909 0.5806365 0.5733754 -0.5780155 0.5740336 -0.581303 -0.5766908 -0.5806371 -0.5733749 -0.5780154 -0.574033 0.5813035 0.5766909 0.5806365 0.5733754 0.5780155 0.5740336 -0.581303 0.5766908 -0.5806371 -0.5733749 0.5780154 0.4712686 0.6673265 -0.5766986 0.6674997 -0.4691182 -0.5782493 -0.4662629 -0.6705858 -0.5769867 -0.6692399 0.4675896 -0.5774755 0.4712686 0.6673265 0.5766986 0.6674997 -0.4691182 0.5782493 -0.4662629 -0.6705858 0.5769867 -0.6692399 0.4675896 0.5774755 -0.5752604 0.5798482 -0.5769329 0.5898625 0.5659181 -0.5760198 0.5645867 -0.5885125 -0.578701 -0.5794448 -0.5748232 -0.5777733 -0.5752604 0.5798482 0.5769329 0.5898625 0.5659181 0.5760198 0.5645867 -0.5885125 0.578701 -0.5794448 -0.5748232 0.5777733 0.5773474 0.5773531 -0.5773503 0.5773531 -0.5773475 -0.5773502 -0.577348 -0.5773526 -0.5773502 -0.5773526 0.5773479 -0.5773503 0.5773474 0.5773531 0.5773503 0.5773531 -0.5773475 0.5773502 -0.577348 -0.5773526 0.5773502 -0.5773526 0.5773479 0.5773503 0.5773484 0.5773521 -0.5773503 0.5773522 -0.5773484 -0.5773502 -0.5773488 -0.5773518 -0.5773502 -0.5773517 0.5773488 -0.5773503 0.5773484 0.5773521 0.5773503 0.5773522 -0.5773484 0.5773502 -0.5773488 -0.5773518 0.5773502 -0.5773517 0.5773488 0.5773503 0.5773474 0.5773531 -0.5773503 0.5773531 -0.5773475 -0.5773502 -0.5773479 -0.5773527 -0.5773502 -0.5773526 0.5773479 -0.5773503 0.5773474 0.5773531 0.5773503 0.5773531 -0.5773475 0.5773502 -0.5773479 -0.5773527 0.5773502 -0.5773526 0.5773479 0.5773503 0.577349 0.5773515 -0.5773503 0.5773515 -0.5773491 -0.5773502 -0.5773495 -0.5773511 -0.5773502 -0.5773511 0.5773494 -0.5773503 0.577349 0.5773515 0.5773503 0.5773515 -0.5773491 0.5773502 -0.5773495 -0.5773511 0.5773502 -0.5773511 0.5773494 0.5773503 0.577348 0.5773525 -0.5773503 0.5773525 -0.5773481 -0.5773502 -0.5773485 -0.5773521 -0.5773502 -0.5773521 0.5773485 -0.5773503 0.577348 0.5773525 0.5773503 0.5773525 -0.5773481 0.5773502 -0.5773485 -0.5773521 0.5773502 -0.5773521 0.5773485 0.5773503 0.5773314 0.5773691 -0.5773503 0.5773692 -0.5773314 -0.5773502 -0.5773323 -0.5773684 -0.5773502 -0.5773683 0.5773322 -0.5773503 0.5773314 0.5773691 0.5773503 0.5773692 -0.5773314 0.5773502 -0.5773323 -0.5773684 0.5773502 -0.5773683 0.5773322 0.5773503 0.5773343 0.5773662 -0.5773503 0.5773662 -0.5773344 -0.5773502 -0.5773352 -0.5773654 -0.5773502 -0.5773653 0.5773351 -0.5773503 0.5773343 0.5773662 0.5773503 0.5773662 -0.5773344 0.5773502 -0.5773352 -0.5773654 0.5773502 -0.5773653 0.5773351 0.5773503 0.5773471 0.5773534 -0.5773503 0.5773536 -0.5773469 -0.5773503 -0.005874449 -0.7089391 -0.7052453 -0.5816723 -0.5721107 -0.5782272 -0.5773528 0.5773477 -0.5773503 0.5773471 0.5773534 0.5773503 0.5773536 -0.5773469 0.5773503 -0.005874449 -0.7089391 0.7052453 -0.5816723 -0.5721107 0.5782272 -0.5773528 0.5773477 0.5773503 0.5773377 0.5773628 -0.5773503 0.705726 0.004288059 -0.7084719 0.581166 -0.5741467 -0.5767162 -0.5773382 -0.5773624 -0.5773502 -0.5773624 0.5773381 -0.5773503 0.5773377 0.5773628 0.5773503 0.705726 0.004288059 0.7084719 0.581166 -0.5741467 0.5767162 -0.5773382 -0.5773624 0.5773502 -0.5773624 0.5773381 0.5773503 0.5734628 0.5831179 -0.575425 0.5723558 -0.5821204 -0.5775334 -0.5791081 -0.5752315 -0.5777045 -0.577352 0.5773485 -0.5773503 -0.009467752 0.7039915 -0.7101453 0.5734628 0.5831179 0.575425 0.5723558 -0.5821204 0.5775334 -0.5791081 -0.5752315 0.5777045 -0.577352 0.5773485 0.5773503 -0.009467752 0.7039915 0.7101453 0.5811476 0.5741653 -0.5767163 0.5735325 -0.5805071 -0.5779896 -0.5773445 -0.577356 -0.5773503 -0.3015084 -0.3015143 -0.904534 -0.5837742 -0.5719349 -0.5762796 -0.5708676 0.5826848 -0.5784363 -0.3022487 0.314151 -0.8999749 -0.5650846 0.5873368 -0.5794091 0.5811476 0.5741653 0.5767163 0.5735325 -0.5805071 0.5779896 -0.5773445 -0.577356 0.5773503 -0.3015084 -0.3015143 0.904534 -0.5837742 -0.5719349 0.5762796 -0.5708676 0.5826848 0.5784363 -0.3022487 0.314151 0.8999749 -0.5650846 0.5873368 0.5794091 0.5678283 0.5866407 -0.5774285 0.5879778 -0.5663404 -0.5775298 -0.5646588 -0.5896455 -0.5774761 -0.294941 -0.3083572 -0.9043924 -0.5680747 -0.5870183 -0.5768021 -0.5848941 0.5694725 -0.5775811 0.5678283 0.5866407 0.5774285 0.5879778 -0.5663404 0.5775298 -0.5646588 -0.5896455 0.5774761 -0.294941 -0.3083572 0.9043924 -0.5680747 -0.5870183 0.5768021 -0.5848941 0.5694725 0.5775811 -0.5278092 0.6162082 -0.5845553 0.5848782 0.5698711 -0.5772039 0.5727956 -0.5811155 -0.5781089 0.3020153 -0.3094377 -0.9016846 0.5663496 -0.5875343 -0.577972 -0.5903885 -0.5650229 -0.5763598 -0.3005875 -0.2912754 -0.9081882 -0.5836714 -0.5720184 -0.5763008 -0.5709723 0.582604 -0.5784145 -0.3019207 0.3483882 -0.8873948 -0.5278092 0.6162082 0.5845553 0.5848782 0.5698711 0.5772039 0.5727956 -0.5811155 0.5781089 0.3020153 -0.3094377 0.9016846 0.5663496 -0.5875343 0.577972 -0.5903885 -0.5650229 0.5763598 -0.3005875 -0.2912754 0.9081882 -0.5836714 -0.5720184 0.5763008 -0.5709723 0.582604 0.5784145 -0.3019207 0.3483882 0.8873948 0.5773314 0.577369 -0.5773504 0.5773695 -0.577331 -0.5773503 0.3015214 -0.3015013 -0.904534 0.3015013 0.3015214 -0.904534 0.577331 0.5773695 -0.5773503 0.5773691 -0.5773315 -0.5773502 -0.5773325 -0.5773681 -0.5773502 -0.3015024 -0.3015204 -0.904534 0.3015203 -0.3015025 -0.904534 0.5773669 -0.5773336 -0.5773502 -0.5773343 -0.5773663 -0.5773502 -0.5773659 0.5773346 -0.5773503 -0.3015195 0.3015031 -0.904534 -0.3015031 -0.3015196 -0.904534 -0.5773346 -0.577366 -0.5773503 -0.5773662 0.5773342 -0.5773503 0.5773336 0.5773669 -0.5773503 0.3015024 0.3015202 -0.9045341 -0.3015203 0.3015023 -0.9045341 -0.577368 0.5773324 -0.5773504 0.5773314 0.577369 0.5773504 0.5773695 -0.577331 0.5773503 0.3015214 -0.3015013 0.904534 0.3015013 0.3015214 0.904534 0.577331 0.5773695 0.5773503 0.5773691 -0.5773315 0.5773502 -0.5773325 -0.5773681 0.5773502 -0.3015024 -0.3015204 0.904534 0.3015203 -0.3015025 0.904534 0.5773669 -0.5773336 0.5773502 -0.5773343 -0.5773663 0.5773502 -0.5773659 0.5773346 0.5773503 -0.3015195 0.3015031 0.904534 -0.3015031 -0.3015196 0.904534 -0.5773346 -0.577366 0.5773503 -0.5773662 0.5773342 0.5773503 0.5773336 0.5773669 0.5773503 0.3015024 0.3015202 0.9045341 -0.3015203 0.3015023 0.9045341 -0.577368 0.5773324 0.5773504</float_array>
          <technique_common>
            <accessor count="286" source="#normals-array-array" stride="3">
              <param type="float" name="X" />
              <param type="float" name="Y" />
              <param type="float" name="Z" />
            </accessor>
          </technique_common>
        </source>
        <vertices id="verts-array-vertices">
          <input semantic="POSITION" source="#verts-array" />
        </vertices>
        <triangles count="460" material="material0">
          <input offset="0" semantic="VERTEX" source="#verts-array-vertices" />
          <input offset="1" semantic="NORMAL" source="#normals-array" />
          <p>0 0 2 2 3 3 2 2 0 0 1 1 7 7 6 6 4 4 5 5 4 4 6 6 4 4 5 5 0 0 0 0 5 5 1 1 5 5 6 6 1 1 1 1 6 6 2 2 7 7 4 4 3 3 3 3 4 4 0 0 6 6 7 7 2 2 2 2 7 7 3 3 10 10 11 11 8 8 8 8 9 9 10 10 12 12 15 15 14 14 14 14 13 13 12 12 12 12 13 13 8 8 8 8 13 13 9 9 13 13 14 14 9 9 9 9 14 14 10 10 15 15 12 12 11 11 11 11 12 12 8 8 14 14 15 15 10 10 10 10 15 15 11 11 18 18 19 19 16 16 16 16 17 17 18 18 20 20 23 23 22 22 22 22 21 21 20 20 20 20 21 21 16 16 16 16 21 21 17 17 21 21 22 22 17 17 17 17 22 22 18 18 23 23 20 20 19 19 19 19 20 20 16 16 22 22 23 23 18 18 18 18 23 23 19 19 25 25 27 27 24 24 27 27 25 25 26 26 28 28 31 31 29 29 30 30 29 29 31 31 28 28 29 29 24 24 24 24 29 29 25 25 29 29 30 30 25 25 25 25 30 30 26 26 31 31 28 28 27 27 27 27 28 28 24 24 30 30 31 31 26 26 26 26 31 31 27 27 34 34 35 35 32 32 32 32 33 33 34 34 36 36 39 39 38 38 38 38 37 37 36 36 36 36 37 37 32 32 32 32 37 37 33 33 37 37 38 38 33 33 33 33 38 38 34 34 39 39 36 36 35 35 35 35 36 36 32 32 38 38 39 39 34 34 34 34 39 39 35 35 40 40 42 42 43 43 42 42 40 40 41 41 47 47 46 46 44 44 45 45 44 44 46 46 44 44 45 45 40 40 40 40 45 45 41 41 45 45 46 46 41 41 41 41 46 46 42 42 47 47 44 44 43 43 43 43 44 44 40 40 46 46 47 47 42 42 42 42 47 47 43 43 50 50 51 51 48 48 48 48 49 49 50 50 52 52 55 55 54 54 54 54 53 53 52 52 52 52 53 53 48 48 48 48 53 53 49 49 53 53 54 54 49 49 49 49 54 54 50 50 55 55 52 52 51 51 51 51 52 52 48 48 54 54 55 55 50 50 50 50 55 55 51 51 58 58 59 59 56 56 56 56 57 57 58 58 60 60 63 63 62 62 62 62 61 61 60 60 60 60 61 61 56 56 56 56 61 61 57 57 61 61 62 62 57 57 57 57 62 62 58 58 63 63 60 60 59 59 59 59 60 60 56 56 62 62 63 63 58 58 58 58 63 63 59 59 65 65 66 66 67 67 67 67 64 64 65 65 71 71 70 70 69 69 69 69 68 68 71 71 68 68 69 69 64 64 64 64 69 69 65 65 69 69 70 70 65 65 65 65 70 70 66 66 71 71 68 68 67 67 67 67 68 68 64 64 70 70 71 71 66 66 66 66 71 71 67 67 72 72 74 74 75 75 74 74 72 72 73 73 79 79 78 78 76 76 77 77 76 76 78 78 76 76 77 77 72 72 72 72 77 77 73 73 77 77 78 78 73 73 73 73 78 78 74 74 79 79 76 76 75 75 75 75 76 76 72 72 78 78 79 79 74 74 74 74 79 79 75 75 81 81 82 82 83 83 83 83 80 80 81 81 87 87 86 86 85 85 85 85 84 84 87 87 84 84 85 85 80 80 80 80 85 85 81 81 85 85 86 86 81 81 81 81 86 86 82 82 87 87 84 84 83 83 83 83 84 84 80 80 86 86 87 87 82 82 82 82 87 87 83 83 89 89 91 91 88 88 91 91 89 89 90 90 92 92 95 95 93 93 94 94 93 93 95 95 92 92 93 93 88 88 88 88 93 93 89 89 93 93 94 94 89 89 89 89 94 94 90 90 95 95 92 92 91 91 91 91 92 92 88 88 94 94 95 95 90 90 90 90 95 95 91 91 97 97 98 98 99 99 99 99 96 96 97 97 103 103 102 102 101 101 101 101 100 100 103 103 100 100 101 101 96 96 96 96 101 101 97 97 101 101 102 102 97 97 97 97 102 102 98 98 103 103 100 100 99 99 99 99 100 100 96 96 102 102 103 103 98 98 98 98 103 103 99 99 106 106 107 107 104 104 104 104 105 105 106 106 108 108 111 111 110 110 110 110 109 109 108 108 108 108 109 109 104 104 104 104 109 109 105 105 109 109 110 110 105 105 105 105 110 110 106 106 111 111 108 108 107 107 107 107 108 108 104 104 110 110 111 111 106 106 106 106 111 111 107 107 112 112 114 114 115 115 114 114 112 112 113 113 119 119 118 118 116 116 117 117 116 116 118 118 116 116 117 117 112 112 112 112 117 117 113 113 117 117 118 118 113 113 113 113 118 118 114 114 119 119 116 116 115 115 115 115 116 116 112 112 118 118 119 119 114 114 114 114 119 119 115 115 120 120 122 122 123 123 122 122 120 120 121 121 127 127 126 126 124 124 125 125 124 124 126 126 124 124 125 125 120 120 120 120 125 125 121 121 125 125 126 126 121 121 121 121 126 126 122 122 127 127 124 124 123 123 123 123 124 124 120 120 126 126 127 127 122 122 122 122 127 127 123 123 128 128 130 130 131 131 130 130 128 128 129 129 135 135 134 134 132 132 133 133 132 132 134 134 132 132 133 133 128 128 128 128 133 133 129 129 133 133 134 134 129 129 129 129 134 134 130 130 135 135 132 132 131 131 131 131 132 132 128 128 134 134 135 135 130 130 130 130 135 135 131 131 137 137 138 138 139 139 139 139 136 136 137 137 143 143 142 142 141 141 141 141 140 140 143 143 140 140 141 141 136 136 136 136 141 141 137 137 141 141 142 142 137 137 137 137 142 142 138 138 143 143 140 140 139 139 139 139 140 140 136 136 142 142 143 143 138 138 138 138 143 143 139 139 144 144 146 146 147 147 146 146 144 144 145 145 151 151 150 150 148 148 149 149 148 148 150 150 148 148 149 149 144 144 144 144 149 149 145 145 149 149 150 150 145 145 145 145 150 150 146 146 151 151 148 148 147 147 147 147 148 148 144 144 150 150 151 151 146 146 146 146 151 151 147 147 152 152 154 154 155 155 154 154 152 152 153 153 159 159 158 158 156 156 157 157 156 156 158 158 156 156 157 157 152 152 152 152 157 157 153 153 157 157 158 158 153 153 153 153 158 158 154 154 159 159 156 156 155 155 155 155 156 156 152 152 158 158 159 159 154 154 154 154 159 159 155 155 160 160 162 162 163 163 162 162 160 160 161 161 167 167 166 166 164 164 165 165 164 164 166 166 164 164 165 165 160 160 160 160 165 165 161 161 165 165 166 166 161 161 161 161 166 166 162 162 167 167 164 164 163 163 163 163 164 164 160 160 166 166 167 167 162 162 162 162 167 167 163 163 170 170 171 171 172 172 168 168 169 169 170 170 172 172 168 168 170 170 177 177 176 176 175 175 175 175 174 174 173 173 175 175 173 173 177 177 173 173 174 174 168 168 168 168 174 174 169 169 174 174 175 175 169 169 169 169 175 175 170 170 175 175 176 176 170 170 170 170 176 176 171 171 177 177 173 173 172 172 172 172 173 173 168 168 176 176 177 177 171 171 171 171 177 177 172 172 179 179 181 181 182 182 182 182 178 178 179 179 181 181 179 179 180 180 187 187 186 186 184 184 184 184 183 183 187 187 185 185 184 184 186 186 183 183 184 184 178 178 178 178 184 184 179 179 184 184 185 185 179 179 179 179 185 185 180 180 185 185 186 186 180 180 180 180 186 186 181 181 187 187 183 183 182 182 182 182 183 183 178 178 186 186 187 187 181 181 181 181 187 187 182 182 192 192 190 190 191 191 188 188 189 189 192 192 190 190 192 192 189 189 196 196 195 195 197 197 197 197 194 194 193 193 194 194 197 197 195 195 193 193 194 194 188 188 188 188 194 194 189 189 194 194 195 195 189 189 189 189 195 195 190 190 195 195 196 196 190 190 190 190 196 196 191 191 197 197 193 193 192 192 192 192 193 193 188 188 196 196 197 197 191 191 191 191 197 197 192 192 204 204 202 202 203 203 198 198 204 204 205 205 204 204 201 201 202 202 201 201 199 199 200 200 201 201 204 204 199 199 198 198 199 199 204 204 211 211 210 210 212 212 213 213 212 212 206 206 210 210 209 209 212 212 208 208 207 207 209 209 207 207 212 212 209 209 212 212 207 207 206 206 206 206 207 207 198 198 198 198 207 207 199 199 207 207 208 208 199 199 199 199 208 208 200 200 208 208 209 209 200 200 200 200 209 209 201 201 209 209 210 210 201 201 201 201 210 210 202 202 210 210 211 211 202 202 202 202 211 211 203 203 211 211 212 212 203 203 203 203 212 212 204 204 213 213 206 206 205 205 205 205 206 206 198 198 212 212 213 213 204 204 204 204 213 213 205 205 217 217 218 218 219 219 214 214 217 217 219 219 217 217 214 214 215 215 216 216 217 217 215 215 225 225 224 224 223 223 225 225 223 223 220 220 221 221 220 220 223 223 221 221 223 223 222 222 220 220 221 221 214 214 214 214 221 221 215 215 221 221 222 222 215 215 215 215 222 222 216 216 222 222 223 223 216 216 216 216 223 223 217 217 223 223 224 224 217 217 217 217 224 224 218 218 225 225 220 220 219 219 219 219 220 220 214 214 224 224 225 225 218 218 218 218 225 225 219 219 229 229 231 231 232 232 233 233 234 234 232 232 235 235 232 232 234 234 235 235 229 229 232 232 226 226 227 227 235 235 227 227 229 229 235 235 228 228 229 229 227 227 230 230 231 231 229 229 242 242 241 241 239 239 242 242 244 244 243 243 244 244 242 242 245 245 242 242 239 239 245 245 245 245 237 237 236 236 245 245 239 239 237 237 237 237 239 239 238 238 239 239 241 241 240 240 236 236 237 237 226 226 226 226 237 237 227 227 237 237 238 238 227 227 227 227 238 238 228 228 238 238 239 239 228 228 228 228 239 239 229 229 239 239 240 240 229 229 229 229 240 240 230 230 240 240 241 241 230 230 230 230 241 241 231 231 241 241 242 242 231 231 231 231 242 242 232 232 242 242 243 243 232 232 232 232 243 243 233 233 243 243 244 244 233 233 233 233 244 244 234 234 245 245 236 236 235 235 235 235 236 236 226 226 244 244 245 245 234 234 234 234 245 245 235 235 258 258 256 256 257 257 258 258 254 254 256 256 255 255 256 256 254 254 253 253 254 254 263 263 263 263 254 254 258 258 259 259 260 260 261 261 261 261 262 262 263 263 258 258 259 259 263 263 259 259 261 261 263 263 251 251 252 252 253 253 253 253 263 263 264 264 250 250 251 251 249 249 253 253 249 249 251 251 264 264 249 249 253 253 248 248 264 264 265 265 246 246 247 247 248 248 265 265 246 246 248 248 248 248 249 249 264 264 277 277 276 276 278 278 276 276 274 274 278 278 274 274 276 276 275 275 283 283 274 274 273 273 278 278 274 274 283 283 281 281 280 280 279 279 283 283 282 282 281 281 283 283 279 279 278 278 283 283 281 281 279 279 273 273 272 272 271 271 284 284 283 283 273 273 269 269 271 271 270 270 271 271 269 269 273 273 273 273 269 269 284 284 285 285 284 284 268 268 268 268 267 267 266 266 268 268 266 266 285 285 284 284 269 269 268 268 266 266 267 267 246 246 246 246 267 267 247 247 267 267 268 268 247 247 247 247 268 268 248 248 268 268 269 269 248 248 248 248 269 269 249 249 269 269 270 270 249 249 249 249 270 270 250 250 270 270 271 271 250 250 250 250 271 271 251 251 271 271 272 272 251 251 251 251 272 272 252 252 272 272 273 273 252 252 252 252 273 273 253 253 273 273 274 274 253 253 253 253 274 274 254 254 274 274 275 275 254 254 254 254 275 275 255 255 275 275 276 276 255 255 255 255 276 276 256 256 276 276 277 277 256 256 256 256 277 277 257 257 277 277 278 278 257 257 257 257 278 278 258 258 278 278 279 279 258 258 258 258 279 279 259 259 279 279 280 280 259 259 259 259 280 280 260 260 280 280 281 281 260 260 260 260 281 281 261 261 281 281 282 282 261 261 261 261 282 282 262 262 282 282 283 283 262 262 262 262 283 283 263 263 283 283 284 284 263 263 263 263 284 284 264 264 285 285 266 266 265 265 265 265 266 266 246 246 284 284 285 285 264 264 264 264 285 285 265 265</p>
        </triangles>
      </mesh>
    </geometry>
  </library_geometries>
  <library_materials>
    <material id="e3f97cdfb2684dd5a2898722e2281036" name="defaultmaterial">
      <instance_effect url="#44c6e62c13224e6d96b3007529f4627c" />
    </material>
  </library_materials>
  <library_visual_scenes>
    <visual_scene id="scene">
      <node id="node0" name="node0">
        <instance_geometry url="#692b95d90afa425b8dbcaf9b0e4faf22">
          <bind_material>
            <technique_common>
              <instance_material symbol="material0" target="#e3f97cdfb2684dd5a2898722e2281036" />
            </technique_common>
          </bind_material>
        </instance_geometry>
      </node>
    </visual_scene>
  </library_visual_scenes>
  <scene>
    <instance_visual_scene url="#scene" />
  </scene>
</COLLADA>
